<mxfile host="Electron" modified="2023-10-19T12:01:18.301Z" agent="Mozilla/5.0 (Windows NT 10.0; Win64; x64) AppleWebKit/537.36 (KHTML, like Gecko) draw.io/22.0.3 Chrome/114.0.5735.289 Electron/25.8.4 Safari/537.36" etag="mMIihHrcI6alOZn8FxpD" version="22.0.3" type="device">
  <diagram name="Strona-1" id="_AlNPenZIOLDMZVP-umV">
    <mxGraphModel dx="1050" dy="629" grid="1" gridSize="10" guides="1" tooltips="1" connect="1" arrows="1" fold="1" page="1" pageScale="1" pageWidth="827" pageHeight="1169" math="0" shadow="0">
      <root>
        <mxCell id="0" />
        <mxCell id="1" parent="0" />
        <mxCell id="_9MTx7SFxgVEaLWraYc--1" value="&lt;p style=&quot;margin: 0px ; margin-top: 4px ; margin-left: 10px ; text-align: left&quot;&gt;&lt;b&gt;Delete list entries compoment&lt;/b&gt;&lt;/p&gt;" style="html=1;strokeWidth=1;shape=mxgraph.sysml.package;html=1;overflow=fill;whiteSpace=wrap;fillColor=none;gradientColor=none;fontSize=12;align=center;labelX=327.64;" parent="1" vertex="1">
          <mxGeometry x="200" y="340" width="440" height="700" as="geometry" />
        </mxCell>
        <mxCell id="_9MTx7SFxgVEaLWraYc--2" value="" style="ellipse;html=1;shape=startState;fillColor=#000000;strokeColor=#ff0000;" parent="1" vertex="1">
          <mxGeometry x="399" y="380" width="30" height="30" as="geometry" />
        </mxCell>
        <mxCell id="_9MTx7SFxgVEaLWraYc--3" value="" style="edgeStyle=orthogonalEdgeStyle;html=1;verticalAlign=bottom;endArrow=open;endSize=8;strokeColor=#ff0000;rounded=0;" parent="1" source="_9MTx7SFxgVEaLWraYc--2" edge="1">
          <mxGeometry relative="1" as="geometry">
            <mxPoint x="414" y="470" as="targetPoint" />
          </mxGeometry>
        </mxCell>
        <mxCell id="_9MTx7SFxgVEaLWraYc--4" value="Clear grid entries" style="html=1;whiteSpace=wrap;" parent="1" vertex="1">
          <mxGeometry x="359" y="480" width="110" height="50" as="geometry" />
        </mxCell>
        <mxCell id="_9MTx7SFxgVEaLWraYc--5" value="Get current&lt;br&gt;list items" style="html=1;whiteSpace=wrap;" parent="1" vertex="1">
          <mxGeometry x="359" y="570" width="110" height="50" as="geometry" />
        </mxCell>
        <mxCell id="_9MTx7SFxgVEaLWraYc--6" value="Delete entry" style="html=1;whiteSpace=wrap;" parent="1" vertex="1">
          <mxGeometry x="359" y="660" width="110" height="50" as="geometry" />
        </mxCell>
        <mxCell id="_9MTx7SFxgVEaLWraYc--7" value="" style="html=1;verticalAlign=bottom;endArrow=open;endSize=8;strokeColor=#ff0000;rounded=0;" parent="1" edge="1">
          <mxGeometry relative="1" as="geometry">
            <mxPoint x="414" y="561" as="targetPoint" />
            <mxPoint x="414" y="535" as="sourcePoint" />
          </mxGeometry>
        </mxCell>
        <mxCell id="_9MTx7SFxgVEaLWraYc--8" value="" style="html=1;verticalAlign=bottom;endArrow=open;endSize=8;strokeColor=#ff0000;rounded=0;" parent="1" edge="1">
          <mxGeometry relative="1" as="geometry">
            <mxPoint x="413" y="656" as="targetPoint" />
            <mxPoint x="413" y="625" as="sourcePoint" />
          </mxGeometry>
        </mxCell>
        <mxCell id="_9MTx7SFxgVEaLWraYc--14" value="Has next" style="rhombus;whiteSpace=wrap;html=1;fontColor=#000000;fillColor=#ffffc0;strokeColor=#ff0000;" parent="1" vertex="1">
          <mxGeometry x="373" y="750" width="80" height="40" as="geometry" />
        </mxCell>
        <mxCell id="_9MTx7SFxgVEaLWraYc--15" value="yes" style="edgeStyle=orthogonalEdgeStyle;html=1;align=left;verticalAlign=bottom;endArrow=open;endSize=8;strokeColor=#ff0000;rounded=0;entryX=1;entryY=0.5;entryDx=0;entryDy=0;" parent="1" source="_9MTx7SFxgVEaLWraYc--14" target="_9MTx7SFxgVEaLWraYc--5" edge="1">
          <mxGeometry x="-1" relative="1" as="geometry">
            <mxPoint x="550" y="760" as="targetPoint" />
            <Array as="points">
              <mxPoint x="500" y="760" />
              <mxPoint x="500" y="595" />
            </Array>
          </mxGeometry>
        </mxCell>
        <mxCell id="_9MTx7SFxgVEaLWraYc--16" value="no" style="edgeStyle=orthogonalEdgeStyle;html=1;align=left;verticalAlign=top;endArrow=open;endSize=8;strokeColor=#ff0000;rounded=0;" parent="1" source="_9MTx7SFxgVEaLWraYc--14" edge="1">
          <mxGeometry x="-1" relative="1" as="geometry">
            <mxPoint x="413" y="840" as="targetPoint" />
          </mxGeometry>
        </mxCell>
        <mxCell id="_9MTx7SFxgVEaLWraYc--17" value="" style="html=1;verticalAlign=bottom;endArrow=open;endSize=8;strokeColor=#ff0000;rounded=0;" parent="1" edge="1">
          <mxGeometry relative="1" as="geometry">
            <mxPoint x="412.89" y="745" as="targetPoint" />
            <mxPoint x="412.89" y="715" as="sourcePoint" />
          </mxGeometry>
        </mxCell>
        <mxCell id="_9MTx7SFxgVEaLWraYc--18" value="Initialize list elements&lt;br&gt;&lt;b&gt;Observable robots&lt;/b&gt;" style="html=1;dropTarget=0;whiteSpace=wrap;" parent="1" vertex="1">
          <mxGeometry x="320" y="850" width="180" height="80" as="geometry" />
        </mxCell>
        <mxCell id="_9MTx7SFxgVEaLWraYc--19" value="" style="shape=module;jettyWidth=8;jettyHeight=4;" parent="_9MTx7SFxgVEaLWraYc--18" vertex="1">
          <mxGeometry x="1" width="20" height="20" relative="1" as="geometry">
            <mxPoint x="-27" y="7" as="offset" />
          </mxGeometry>
        </mxCell>
        <mxCell id="SS_uhr1cD55yVBT8mmSL-1" value="" style="ellipse;html=1;shape=endState;fillColor=#000000;strokeColor=#ff0000;" parent="1" vertex="1">
          <mxGeometry x="399" y="980" width="30" height="30" as="geometry" />
        </mxCell>
        <mxCell id="SS_uhr1cD55yVBT8mmSL-2" value="" style="html=1;verticalAlign=bottom;endArrow=open;endSize=8;strokeColor=#ff0000;rounded=0;dashed=1;" parent="1" edge="1">
          <mxGeometry relative="1" as="geometry">
            <mxPoint x="414" y="975" as="targetPoint" />
            <mxPoint x="414" y="935" as="sourcePoint" />
          </mxGeometry>
        </mxCell>
      </root>
    </mxGraphModel>
  </diagram>
</mxfile>
